inDegrees=yes
name=ik_Xsens_quaternion
DataType=double
version=3
OpenSimVersion=4.4-2022-07-23-0e9fedc
endheader
time	pelvis_tilt	pelvis_list	pelvis_rotation	pelvis_tx	pelvis_ty	pelvis_tz	hip_flexion_r	hip_adduction_r	hip_rotation_r	knee_angle_r	knee_angle_r_beta	ankle_angle_r	subtalar_angle_r	mtp_angle_r	hip_flexion_l	hip_adduction_l	hip_rotation_l	knee_angle_l	knee_angle_l_beta	ankle_angle_l	subtalar_angle_l	mtp_angle_l	lumbar_extension	lumbar_bending	lumbar_rotation	arm_flex_r	arm_add_r	arm_rot_r	elbow_flex_r	pro_sup_r	wrist_flex_r	wrist_dev_r	arm_flex_l	arm_add_l	arm_rot_l	elbow_flex_l	pro_sup_l	wrist_flex_l	wrist_dev_l
17.38333333333333	6.975290341747156e-27	-4.333856695171814e-25	9.868432376415747e-25	2.306514352321793e-26	0.93	-1.198030964732939e-26	5.564549217479588e-16	5.012320946963091e-17	-4.46290031114251e-15	1.053868330279481e-15	-2.887241647901848e-16	5.319408024187707e-16	9.846368498151345e-15	4.867137366392493e-17	5.188821847998842e-14	-4.383617421987765e-15	1.831768207579022e-14	7.0408316783097e-16	-7.782810019884323e-16	-2.107933256202701e-16	-1.013511044240321e-14	2.117510665019818e-17	-1.167585849177894e-13	1.267750992536015e-13	1.23810383744393e-13	-6.959756304900486e-05	0.0001122493197871511	1.636487077791299e-08	2.605258935447063e-10	2.130598370791901e-10	1.1805094598847e-18	2.221415525454599e-19	-28.90097993116066	-50.5937627706335	-121.7779237614458	29.61226585847347	-34.86364310944539	2.285152648154858e-17	3.125811405998551e-19
17.4	3.554927807482693e-25	4.977590172449663e-17	-1.076130011141112e-26	-3.936553893755553e-24	0.93	6.583156124406465e-24	-5.730750413337584e-32	5.532756953120562e-22	2.625784967512194e-32	1.855409858431008e-15	3.238301144333212e-17	-1.006846258723814e-20	-2.03728250053123e-21	-5.227288808574613e-17	1.969146663212898e-21	1.440488449938787e-29	3.518791886493067e-20	1.854883451365934e-15	3.237371410148417e-17	-1.96718518610807e-23	-5.483353864894646e-16	-2.262877287244306e-17	4.692258276040221e-25	-1.126493601335786e-24	1.001900348211484e-24	-6.959756304900475e-05	0.000112249319787151	1.636487077777697e-08	2.605258935273043e-10	2.130598371089689e-10	-2.504953068202124e-19	-1.510147969272162e-18	-29.18369236222745	-50.20466301936033	-122.4530049610243	29.49337174014409	-34.82118631147718	8.128719787533774e-19	-8.526949872609901e-21
17.41666666666667	0	0	0	0	0.93	0	0	0	0	1.052357267868557e-38	-2.868328524527586e-40	0	0	0	0	0	0	0	-2.868328524527586e-40	0	0	0	0	0	0	-6.959756304900475e-05	0.0001122493197871469	1.636487077329534e-08	2.605258849159227e-10	2.130598461034848e-10	0	0	-29.37028243439333	-49.90946393040685	-123.1103416157817	29.27927205483626	-34.69753853322091	0	0
17.43333333333333	0	0	0	0	0.93	0	0	0	0	0	0	0	0	0	0	0	0	0	0	0	0	0	0	0	0	-6.959751877462728e-05	0.0001122493232010664	1.636759968865511e-08	2.605258849156883e-10	2.130598461032293e-10	0	0	-29.46620721235735	-49.67838054393721	-123.7101651776274	29.05620191710783	-34.57482553238986	0	0
17.45	0	0	0	0	0.93	0	0	0	0	7.658065884219286e-39	0	0	0	0	0	0	0	7.658065884219286e-39	0	0	0	0	0	0	0	-6.959751877462728e-05	0.0001122493232010664	1.636759968865511e-08	2.605258849156883e-10	2.130598461032293e-10	0	0	-29.56044743078002	-49.46213822862843	-124.2505658570653	28.85121058661319	-34.46850770704476	0	0
17.46666666666667	0	0	0	0	0.93	0	0	0	0	0	-9.183549615799121e-41	0	0	0	0	0	0	0	-9.183549615799121e-41	0	0	0	0	0	0	-6.959751877462728e-05	0.0001122493232010664	1.636759968865511e-08	2.605258849156883e-10	2.130598461032293e-10	0	0	-29.70165200799423	-49.19329999132706	-124.6753041266159	28.77648114032028	-34.50218074378249	0	0
17.48333333333333	0	0	0	0	0.93	0	0	0	0	0	2.915600487196076e-41	0	0	0	0	0	0	0	2.915600487196076e-41	0	0	0	0	0	0	-6.959751877462728e-05	0.0001122493232010664	1.636759968865511e-08	2.605258849156883e-10	2.130598461032293e-10	0	0	-29.8226978578091	-48.94230559888851	-125.0578043666262	28.71554996554255	-34.5469716701769	0	0
17.5	0	0	0	0	0.93	0	0	0	0	0	0	0	0	0	0	0	0	0	0	0	0	0	0	0	0	-6.959751877462728e-05	0.0001122493232010664	1.636759968865511e-08	2.605258849156883e-10	2.130598461032293e-10	0	0	-29.87415575267376	-48.75086245056194	-125.4000383771109	28.63633085669634	-34.59318154781079	0	0
17.51666666666667	6.091443283993854e-28	-1.956651401551854e-21	-2.385790062882924e-28	3.421004841740185e-22	0.93	2.106736071827821e-20	-3.920222965033039e-29	1.638515548121845e-17	0	0	-1.773564057543471e-16	8.106630307729466e-22	5.504631187946923e-20	-2.892389887587027e-19	8.064071613873119e-18	-6.272060173788972e-27	-7.23321114648791e-20	0	-1.773477906272392e-16	1.280813132199745e-19	1.411366383724254e-23	-2.151424656953741e-19	2.674831527073765e-28	1.201696591209136e-25	-2.328957305493391e-24	-6.95975187746271e-05	0.0001122493232010648	1.636759968751041e-08	2.605258919546996e-10	2.130598450880808e-10	5.070873636897961e-21	1.311977918846507e-19	-29.88591072730487	-48.59185128196118	-125.7067499479358	28.54914083776428	-34.63160613378835	9.140279717387381e-20	-1.089160777220579e-19
17.53333333333333	0	0	0	0	0.93	0	0	0	0	2.871517767739787e-39	-2.889071508473444e-40	0	0	0	0	0	0	0	-5.980151391387836e-41	0	0	0	0	0	0	-6.95975187746271e-05	0.0001122493232010648	1.636759968751041e-08	2.605258919546996e-10	2.130598450880808e-10	0	0	-29.8917910951726	-48.44530581852084	-126.0077546434708	28.41527096240673	-34.59509118343011	0	0
17.55	0	0	0	0	0.93	0	0	0	0	0	0	0	0	0	0	0	0	0	0	0	0	0	0	0	0	-6.959751877462702e-05	0.0001122493232010637	1.636759968832332e-08	2.605258878466702e-10	2.130598451894343e-10	0	0	-29.87968316892174	-48.32989195175674	-126.2951663939962	28.24476321922231	-34.53917138680493	0	0
17.56666666666667	0	0	0	0	0.93	0	0	0	0	0	0	0	0	0	0	0	0	0	0	0	0	0	0	0	0	-6.959751877462698e-05	0.0001122493232002808	1.636759933732413e-08	2.605258877990253e-10	2.130598442809853e-10	0	0	-29.83381909652426	-48.24480200973838	-126.546332527277	28.07074396234167	-34.52342800649004	0	0
17.58333333333333	0	0	0	0	0.93	0	0	0	0	0	0	0	0	0	0	0	0	0	0	0	0	0	0	0	0	-6.959751877495892e-05	0.0001122493231825187	1.636778421226342e-08	2.605413226304454e-10	2.127033295275515e-10	0	0	-29.74285502884109	-48.22837146497102	-126.8343328420991	27.81637358176042	-34.42859284460422	0	0
17.6	0	0	0	0	0.93	0	0	0	0	0	0	0	0	0	0	0	0	0	0	0	0	0	0	0	0	-6.959751877495876e-05	0.0001122493231825264	1.636778418771266e-08	2.605413176432013e-10	2.127033193588127e-10	0	0	-29.53472066130219	-48.33528059395683	-127.106172477794	27.46675804503606	-34.3416722075546	0	0
17.61666666666667	0	0	0	0	0.93	0	0	0	0	0	0	0	0	0	0	0	0	0	0	0	0	0	0	0	0	-6.959751877495876e-05	0.0001122493231825264	1.636778418771266e-08	2.605413176432013e-10	2.127033193588127e-10	0	0	-29.28602059350693	-48.49172976429821	-127.3609365360759	27.10815852369042	-34.28662053755934	0	0
17.63333333333333	-6.216405925958047e-35	0	3.302257643173986e-34	0	0.93	0	5.698303199647203e-37	0	0	0	0	-8.418858142948453e-38	0	0	0	0	0	0	0	-1.370695341398795e-36	0	0	-6.216405925958047e-35	0	2.94539013917391e-34	-6.959751877495884e-05	0.0001122493231825264	1.636778418771246e-08	2.605413176430939e-10	2.127033193588731e-10	0	0	-29.05976291494107	-48.66345919427	-127.6689161795274	26.61683422832899	-34.04638171116225	0	0
17.65	0	0	0	0	0.93	0	0	0	0	0	6.08334699934859e-41	0	0	0	0	0	0	2.665470692831713e-39	-1.120309521507081e-41	0	0	0	0	0	0	-6.959746925776964e-05	0.000112249272578643	1.66043813490482e-08	2.605413176453231e-10	2.127033193589326e-10	0	0	-28.85996046247442	-48.85011800768913	-128.0328372647886	25.99844534015291	-33.62946122763655	0	0
17.66666666666667	0	0	0	0	0.93	0	0	0	0	2.168906734711597e-39	9.183549615799121e-41	0	0	0	0	0	0	2.292524146787103e-39	0	0	0	0	0	0	0	-6.959746925776876e-05	0.0001122492725786429	1.660438135062652e-08	2.605413176417082e-10	2.127033193499159e-10	0	0	-28.68648424285769	-48.96899837579522	-128.28208281702	25.55928227547688	-33.41194817191646	0	0
17.68333333333333	0	0	0	0	0.93	0	0	0	0	7.204339330813887e-41	3.713841885935293e-41	0	0	0	0	0	0	7.204339330813887e-41	3.713841885935293e-41	0	0	0	0	0	0	-6.959746925776876e-05	0.0001122492725786429	1.660438135062652e-08	2.605413176417082e-10	2.127033193499159e-10	0	0	-28.52468655386991	-49.03090433236117	-128.3472340169733	25.33219577722149	-33.50930384618155	0	0
17.7	8.620910738379216e-35	2.694034605743505e-36	-7.656906875989492e-50	0	0.93	0	-9.475209115445591e-36	-1.317373831786092e-36	0	4.690102562285365e-39	-9.793668056465712e-41	0	0	0	-9.475209115445591e-36	-1.317373831786092e-36	0	4.690102562285365e-39	-9.793668056465712e-41	0	0	0	8.620910738379216e-35	2.694034605743505e-36	-7.656906875989492e-50	-6.959746925776876e-05	0.0001122492725786429	1.660438135062652e-08	2.605413176417082e-10	2.127033193499159e-10	0	5.38806921148701e-36	-28.39726567694107	-49.04227934083429	-128.3960548455988	25.16002537979283	-33.62410245297989	0	5.38806921148701e-36
17.71666666666667	-1.080745131952756e-24	2.350564179239476e-23	6.845633651063592e-26	-8.600982237098424e-26	0.93	0	1.352349658102731e-23	-2.288646771188589e-22	3.580545636658673e-23	0	-1.729390767291004e-17	1.438431865945288e-21	1.00219341452441e-21	-1.386832652042086e-19	7.784356617367338e-24	-3.716115190603135e-16	7.3258413758824e-16	0	-1.93176083728617e-17	-3.006532072583401e-21	1.931387292209216e-23	2.591816600161623e-19	-2.865712480051929e-16	-3.057174460460385e-18	-1.956766677596256e-16	-6.959747038273792e-05	0.000112250438407093	1.727146413676269e-08	2.605413193449792e-10	2.127033179849136e-10	-2.255577550204467e-23	2.983511482893613e-23	-28.34579735387007	-49.06325205088392	-128.5482641963988	24.90680443841325	-33.57994017115577	2.058720373803299e-24	3.656430392998679e-23
17.73333333333333	-2.520722294770967e-28	-1.044068587877819e-22	1.583144047995959e-30	6.288747192646859e-25	0.93	6.86983879761557e-25	4.074888896262506e-35	-3.18062883672565e-23	-3.414264748513144e-33	0	-1.325682297864237e-17	-1.359267624786223e-20	4.550900390021487e-22	4.700804898871281e-20	-2.05201667802499e-22	-4.826416876881604e-31	-3.542616731765226e-24	0	-1.298852015038013e-17	1.708054494605306e-20	2.575286779214791e-23	4.071055367863454e-21	-2.520722294770967e-28	3.378450640347437e-26	-1.086455714340264e-23	-6.959747038273799e-05	0.0001122504384070897	1.727146413787986e-08	2.605413102047971e-10	2.127033333309296e-10	-5.847073000291733e-23	1.378203802021484e-20	-28.32780842129199	-49.06718137531853	-128.7797206756771	24.62551037246737	-33.38005763890992	1.729768097934402e-22	-3.556766995007268e-22
17.75	0	0	0	0	0.93	0	0	0	0	1.691185450296753e-39	-7.354315657578997e-42	0	0	0	0	0	0	0	-9.238945858904163e-42	0	0	0	0	0	0	-6.959747038273799e-05	0.0001122504384070897	1.727146413787986e-08	2.605413102047971e-10	2.127033333309296e-10	0	0	-28.32708760215018	-49.0964616704501	-129.0241220934974	24.34993540651605	-33.16567790235067	0	0
17.76666666666667	-3.308860782440064e-27	-2.737458742328592e-19	1.481028670626998e-27	5.884028614061392e-22	0.93	1.007221371859188e-20	1.34246016511423e-31	1.790084462084067e-18	1.329136735969025e-30	1.388613947479901e-16	2.423588542016078e-18	2.874043166845478e-21	-8.593382052268287e-23	1.392535346140409e-17	-1.789938777548738e-18	-2.075670163675804e-29	-1.799306071942285e-18	1.396916249802396e-16	2.438083393928499e-18	-2.521853795133114e-23	3.344459505002287e-17	7.077464156433728e-18	-7.709993412392336e-28	-3.24430502859778e-23	-2.171821060131825e-25	-6.959747038273799e-05	0.0001122504384070821	1.727146414391478e-08	2.605413190381521e-10	2.127032977076429e-10	1.237447108183354e-21	2.79530747363917e-19	-28.31294329680375	-49.10212447195309	-129.1862098163471	24.22608040057894	-33.11570797579667	-1.204756370874548e-20	3.642266975970923e-19
17.78333333333333	0	0	0	0	0.93	0	0	0	0	0	0	0	0	0	0	0	0	0	0	0	0	0	0	0	0	-6.959747038273799e-05	0.0001122504384070821	1.727146414391478e-08	2.605413190381521e-10	2.127032977076429e-10	0	0	-28.3708043646971	-49.02614030944745	-129.2653353469879	24.28384179721711	-33.21973894062177	0	0
17.8	0	0	0	0	0.93	0	0	0	0	0	0	0	0	0	0	0	0	0	0	0	0	0	0	0	0	-6.959747038273799e-05	0.000112250438407082	1.727146414393482e-08	2.605413206317075e-10	2.127032977142689e-10	0	0	-28.50135137799496	-48.82748189294117	-129.255811112353	24.52279565166096	-33.42310005591349	0	0
17.81666666666667	0	0	0	0	0.93	0	0	0	0	0	-7.055004429304082e-41	0	0	0	0	0	0	0	-7.055004429304082e-41	0	0	0	0	0	0	-6.959747038273799e-05	0.000112250438407082	1.727146414393482e-08	2.605413206317075e-10	2.127032977142689e-10	0	0	-28.67864710413184	-48.69554778738646	-129.3346964285157	24.62552243796406	-33.52733501338843	0	0
